<svg width="107" height="34" viewBox="0 0 107 34" fill="none" xmlns="http://www.w3.org/2000/svg">
<path d="M4.37 33C4.06333 33 3.78733 32.8927 3.542 32.678C3.32733 32.4633 3.22 32.1873 3.22 31.85V1.95C3.22 1.61266 3.32733 1.33666 3.542 1.122C3.78733 0.907332 4.06333 0.799998 4.37 0.799998H9.338C9.82867 0.799998 10.1967 0.937998 10.442 1.214C10.718 1.45933 10.8867 1.65867 10.948 1.812L19.044 16.348L27.14 1.812C27.232 1.65867 27.3853 1.45933 27.6 1.214C27.8453 0.937998 28.2287 0.799998 28.75 0.799998H33.672C34.0093 0.799998 34.2853 0.907332 34.5 1.122C34.7453 1.33666 34.868 1.61266 34.868 1.95V31.85C34.868 32.1873 34.7453 32.4633 34.5 32.678C34.2853 32.8927 34.0093 33 33.672 33H28.198C27.8607 33 27.5693 32.8927 27.324 32.678C27.1093 32.4633 27.002 32.1873 27.002 31.85V14.6L21.804 24.214C21.6813 24.49 21.4973 24.7353 21.252 24.95C21.0067 25.1647 20.6693 25.272 20.24 25.272H17.848C17.4187 25.272 17.0813 25.1647 16.836 24.95C16.5907 24.7353 16.3913 24.49 16.238 24.214L11.04 14.6V31.85C11.04 32.1873 10.9327 32.4633 10.718 32.678C10.5033 32.8927 10.2273 33 9.89 33H4.37ZM53.2748 33.46C50.2082 33.46 47.6628 33.0307 45.6388 32.172C43.6148 31.2827 42.0815 30.1327 41.0388 28.722C39.9962 27.3113 39.4442 25.8087 39.3828 24.214C39.3828 23.9687 39.4748 23.754 39.6588 23.57C39.8735 23.3553 40.1188 23.248 40.3948 23.248H46.1908C46.6202 23.248 46.9422 23.3247 47.1568 23.478C47.4022 23.6313 47.6168 23.8307 47.8008 24.076C48.0462 24.536 48.3835 24.9807 48.8128 25.41C49.2728 25.8393 49.8555 26.192 50.5608 26.468C51.2968 26.7133 52.2015 26.836 53.2748 26.836C55.0535 26.836 56.3875 26.56 57.2768 26.008C58.1968 25.456 58.6568 24.7047 58.6568 23.754C58.6568 23.0793 58.4115 22.5273 57.9208 22.098C57.4302 21.638 56.6328 21.2393 55.5288 20.902C54.4555 20.534 53.0142 20.166 51.2048 19.798C48.8742 19.3073 46.8808 18.6787 45.2248 17.912C43.5995 17.1147 42.3575 16.0873 41.4988 14.83C40.6402 13.542 40.2108 11.9473 40.2108 10.046C40.2108 8.17533 40.7322 6.504 41.7748 5.032C42.8482 3.56 44.3355 2.41 46.2368 1.582C48.1382 0.753998 50.3922 0.339998 52.9988 0.339998C55.1148 0.339998 56.9702 0.615998 58.5648 1.168C60.1902 1.72 61.5548 2.456 62.6588 3.376C63.7628 4.296 64.5908 5.27733 65.1428 6.32C65.7255 7.332 66.0322 8.32866 66.0628 9.31C66.0628 9.55533 65.9708 9.78533 65.7868 10C65.6028 10.184 65.3728 10.276 65.0968 10.276H59.0248C58.6875 10.276 58.3962 10.2147 58.1508 10.092C57.9055 9.96933 57.6908 9.77 57.5068 9.494C57.3228 8.81933 56.8322 8.23666 56.0348 7.746C55.2682 7.22466 54.2562 6.964 52.9988 6.964C51.6495 6.964 50.5915 7.20933 49.8248 7.7C49.0888 8.16 48.7208 8.88067 48.7208 9.862C48.7208 10.4753 48.9202 11.012 49.3188 11.472C49.7482 11.932 50.4382 12.3307 51.3888 12.668C52.3702 13.0053 53.7042 13.358 55.3908 13.726C58.1815 14.2473 60.4355 14.9067 62.1528 15.704C63.8702 16.4707 65.1275 17.4827 65.9248 18.74C66.7222 19.9667 67.1208 21.5153 67.1208 23.386C67.1208 25.4713 66.5228 27.2807 65.3268 28.814C64.1615 30.3167 62.5362 31.4667 60.4508 32.264C58.3655 33.0613 55.9735 33.46 53.2748 33.46ZM72.8759 33C72.5692 33 72.2932 32.8927 72.0479 32.678C71.8332 32.4633 71.7259 32.1873 71.7259 31.85V1.95C71.7259 1.61266 71.8332 1.33666 72.0479 1.122C72.2932 0.907332 72.5692 0.799998 72.8759 0.799998H77.8439C78.3345 0.799998 78.7025 0.937998 78.9479 1.214C79.2239 1.45933 79.3925 1.65867 79.4539 1.812L87.5499 16.348L95.6459 1.812C95.7379 1.65867 95.8912 1.45933 96.1059 1.214C96.3512 0.937998 96.7345 0.799998 97.2559 0.799998H102.178C102.515 0.799998 102.791 0.907332 103.006 1.122C103.251 1.33666 103.374 1.61266 103.374 1.95V31.85C103.374 32.1873 103.251 32.4633 103.006 32.678C102.791 32.8927 102.515 33 102.178 33H96.7039C96.3665 33 96.0752 32.8927 95.8299 32.678C95.6152 32.4633 95.5079 32.1873 95.5079 31.85V14.6L90.3099 24.214C90.1872 24.49 90.0032 24.7353 89.7579 24.95C89.5125 25.1647 89.1752 25.272 88.7459 25.272H86.3539C85.9245 25.272 85.5872 25.1647 85.3419 24.95C85.0965 24.7353 84.8972 24.49 84.7439 24.214L79.5459 14.6V31.85C79.5459 32.1873 79.4385 32.4633 79.2239 32.678C79.0092 32.8927 78.7332 33 78.3959 33H72.8759Z" fill="#FEFFFF"/>
</svg>
